@startuml
' PlantUML diagram for org.openehr.am.aom14.archetype.constraint_model.C_ATTRIBUTE
title C_ATTRIBUTE Class

abstract class C_ATTRIBUTE {
  + rm_attribute_name : String [1..1]
  + existence : Interval<Integer> [1..1]
  + children : List<C_OBJECT> [0..*]
  + any_allowed() : Boolean [0..1]
}

abstract class ARCHETYPE_CONSTRAINT {
  + parent : ARCHETYPE_CONSTRAINT [0..1]
  + soc_parent : C_SECOND_ORDER [0..1]
  + {abstract} is_prohibited() : Boolean [0..1]
  + has_path(String a_path) : Boolean [0..1]
  + path() : String [0..1]
  + {abstract} c_conforms_to(ARCHETYPE_CONSTRAINT other, FUNCTION<> rmcc) : Boolean [0..1]
  + {abstract} c_congruent_to(ARCHETYPE_CONSTRAINT other) : Boolean [0..1]
  + is_second_order_constrained() : Boolean [0..1]
  + is_root() : Boolean [0..1]
  + is_leaf() : Boolean [0..1]
}

class ADL_CODE_DEFINITIONS {
  + codes_conformant(String a_child_code, String a_parent_code) : Boolean [0..1]
  + is_adl_code(String a_code) : Boolean [0..1]
  + is_id_code(String a_code) : Boolean [0..1]
  + is_value_code(String a_code) : Boolean [0..1]
  + is_value_set_code(String a_code) : Boolean [0..1]
  + is_redefined_code(String a_code) : Boolean [0..1]
  + code_exists_at_level(String a-code, Integer a_level) : Boolean [0..1]
}

ADL_CODE_DEFINITIONS <|-- ARCHETYPE_CONSTRAINT

ARCHETYPE_CONSTRAINT <|-- C_ATTRIBUTE


@enduml