@startuml
' PlantUML diagram for org.openehr.lang.bmm_persistence.P_BMM_SINGLE_PROPERTY
title P_BMM_SINGLE_PROPERTY Class

class P_BMM_SINGLE_PROPERTY {
  + type : String [0..1]
  + type_ref : P_BMM_SIMPLE_TYPE [0..1]
  + bmm_property : BMM_UNITARY_PROPERTY [0..1]
  + type_def() : P_BMM_SIMPLE_TYPE [0..1]
}

abstract class P_BMM_PROPERTY {
  + name : String [1..1]
  + is_mandatory : Boolean [0..1]
  + is_computed : Boolean [0..1]
  + is_im_infrastructure : Boolean [0..1]
  + is_im_runtime : Boolean [0..1]
  + type_def : P_BMM_TYPE [0..1]
  + bmm_property : BMM_PROPERTY<BMM_TYPE> [0..1]
  + create_bmm_property(BMM_MODEL a_bmm_schema, BMM_CLASS a_class_def) : void [0..1]
}

abstract class P_BMM_MODEL_ELEMENT {
  + documentation : String [0..1]
}

P_BMM_MODEL_ELEMENT <|-- P_BMM_PROPERTY

P_BMM_PROPERTY <|-- P_BMM_SINGLE_PROPERTY


@enduml