@startuml

abstract class EL_DECISION_TABLE <T> {
  + items : List<EL_DECISION_BRANCH<T>> [1..*]
  + else : T [1]
}

abstract class EL_TERMINAL  #whitesmoke;line:gray;line.dotted;text:gray {
}

abstract class EL_SIMPLE  #whitesmoke;line:gray;line.dotted;text:gray {
}

abstract class EL_EXPRESSION  #whitesmoke;line:gray;line.dotted;text:gray {
  + {abstract} eval_type() : BMM_TYPE [1]
  + is_boolean() : Boolean [1]
}

EL_EXPRESSION <|-- EL_SIMPLE

EL_SIMPLE <|-- EL_TERMINAL

EL_TERMINAL <|-- EL_DECISION_TABLE


@enduml