@startuml
' PlantUML diagram for org.openehr.lang.bmm.expression.EL_LITERAL
title EL_LITERAL Class

class EL_LITERAL {
  + value : BMM_LITERAL_VALUE<BMM_TYPE> [1..1]
  + eval_type() : BMM_TYPE [0..1]
}

abstract class EL_SIMPLE {
}

abstract class EL_EXPRESSION {
  + {abstract} eval_type() : BMM_TYPE [0..1]
  + is_boolean() : Boolean [0..1]
}

EL_EXPRESSION <|-- EL_SIMPLE

EL_SIMPLE <|-- EL_LITERAL


@enduml