@startuml
' PlantUML diagram for org.openehr.am.aom14.archetype.primitive
title primitive Package

class C_BOOLEAN {
  + constraint : List<Boolean> [0..*]
  + assumed_value : Boolean [0..1]
  + default_value : Boolean [1..1]
  + prototype_value() : Boolean [0..1]
  + any_allowed() : Boolean [0..1]
  + c_value_conforms_to(C_BOOLEAN other) : Boolean [0..1]
  + c_value_congruent_to(C_BOOLEAN other) : Boolean [0..1]
}

class C_STRING {
  + constraint : List<String> [0..*]
  + default_value : String [1..1]
  + assumed_value : String [0..1]
  + prototype_value() : String [0..1]
  + valid_value(String a_value) : Boolean [0..1]
  + any_allowed() : Boolean [0..1]
  + c_value_conforms_to(C_STRING other) : Boolean [0..1]
  + c_value_congruent_to(C_STRING other) : Boolean [0..1]
}

class C_INTEGER {
  + constraint : List<Interval<Integer>> [0..*]
}

class C_REAL {
  + constraint : List<Interval<Real>> [0..*]
}

class C_TIME {
  + constraint : List<Interval<Iso8601_time>> [0..*]
  + minute_validity() : VALIDITY_KIND [0..1]
  + second_validity() : VALIDITY_KIND [0..1]
  + millisecond_validity() : VALIDITY_KIND [0..1]
  + timezone_validity() : VALIDITY_KIND [0..1]
}

class C_DATE {
  + constraint : List<Interval<Iso8601_date>> [0..*]
  + month_validity() : VALIDITY_KIND [0..1]
  + day_validity() : VALIDITY_KIND [0..1]
  + timezone_validity() : VALIDITY_KIND [0..1]
}

class C_DATE_TIME {
  + constraint : List<Interval<Iso8601_date_time>> [0..*]
  + month_validity() : VALIDITY_KIND [0..1]
  + day_validity() : VALIDITY_KIND [0..1]
  + timezone_validity() : VALIDITY_KIND [0..1]
  + minute_validity() : VALIDITY_KIND [0..1]
  + second_validity() : VALIDITY_KIND [0..1]
  + millisecond_validity() : VALIDITY_KIND [0..1]
}

class C_DURATION {
  + constraint : List<Interval<Iso8601_duration>> [0..*]
  + years_allowed:() : Boolean [0..1]
  + months_allowed:() : Boolean [0..1]
  + weeks_allowed:() : Boolean [0..1]
  + days_allowed() : Boolean [0..1]
  + hours_allowed() : Boolean [0..1]
  + minutes_allowed() : Boolean [0..1]
  + seconds_allowed() : Boolean [0..1]
}

abstract class C_PRIMITIVE {
  + assumed_value : Any [0..1]
  + {abstract} default_value() : Any [0..1]
  + {abstract} has_assumed_value() : Boolean [0..1]
  + {abstract} valid_value(Any a_value) : Boolean [0..1]
}

C_PRIMITIVE_OBJECT <|-- C_BOOLEAN
C_PRIMITIVE_OBJECT <|-- C_STRING
C_ORDERED <|-- C_INTEGER
C_ORDERED <|-- C_REAL
C_TEMPORAL <|-- C_TIME
C_TEMPORAL <|-- C_DATE
C_TEMPORAL <|-- C_DATE_TIME
C_TEMPORAL <|-- C_DURATION

@enduml