@startuml
' PlantUML diagram for org.openehr.rm.composition.content.entry.ACTION
title ACTION Class

class ACTION {
  + time : DV_DATE_TIME [1..1]
  + ism_transition : ISM_TRANSITION [1..1]
  + instruction_details : INSTRUCTION_DETAILS [0..1]
  + description : ITEM_STRUCTURE [1..1]
}

abstract class CARE_ENTRY {
  + protocol : ITEM_STRUCTURE [0..1]
  + guideline_id : OBJECT_REF [0..1]
}

abstract class ENTRY {
  + language : CODE_PHRASE [1..1]
  + encoding : CODE_PHRASE [1..1]
  + other_participations : List<PARTICIPATION> [0..*]
  + workflow_id : OBJECT_REF [0..1]
  + subject : PARTY_PROXY [1..1]
  + provider : PARTY_PROXY [0..1]
  + subject_is_self() : Boolean [0..1]
}

abstract class CONTENT_ITEM {
}

abstract class LOCATABLE {
  + name : DV_TEXT [1..1]
  + archetype_node_id : String [1..1]
  + uid : UID_BASED_ID [0..1]
  + links : List<LINK> [0..*]
  + archetype_details : ARCHETYPED [0..1]
  + feeder_audit : FEEDER_AUDIT [0..1]
  + concept() : DV_TEXT [0..1]
  + is_archetype_root() : Boolean [0..1]
}

abstract class PATHABLE {
  + parent() : PATHABLE [0..1]
  + item_at_path(String a_path) : Any [0..1]
  + items_at_path(String a_path) : List<Any> [1..*]
  + path_exists(String a_path) : Boolean [0..1]
  + path_unique(String a_path) : Boolean [0..1]
  + path_of_item(PATHABLE a_loc) : String [0..1]
}

PATHABLE <|-- LOCATABLE

LOCATABLE <|-- CONTENT_ITEM

CONTENT_ITEM <|-- ENTRY

ENTRY <|-- CARE_ENTRY

CARE_ENTRY <|-- ACTION


@enduml