@startuml

abstract class DV_ORDERED {
  + normal_status : CODE_PHRASE [0..1]
  + normal_range : DV_INTERVAL [0..1]
  + other_reference_ranges : List<REFERENCE_RANGE<DV_ORDERED>> [*]
  + {abstract} is_strictly_comparable_to( other : DV_ORDERED [1] ) : Boolean [1]
  + is_simple() : Boolean [1]
  + is_normal() : Boolean [1]
  + {abstract} infix <( other : Ordered [1] ) : Boolean [1]
}

class DV_INTERVAL <T> {
}

class REFERENCE_RANGE <T> {
  + meaning : DV_TEXT [1]
  + range : DV_INTERVAL [1]
  + is_in_range( v : DV_ORDERED [1] ) : Boolean [1]
}

abstract class DV_QUANTIFIED {
  + magnitude_status : String [0..1]
  + accuracy : Any [0..1]
  + valid_magnitude_status() : Boolean [1]
  + {abstract} magnitude() : Ordered_Numeric [1]
  + accuracy_unknown() : Boolean [1]
}

class DV_PROPORTION {
  + numerator : Real [1]
  + denominator : Real [1]
  + type : Integer [1]
  + precision : Integer [0..1]
  + normal_range : DV_INTERVAL<DV_PROPORTION> [0..1]
  + other_reference_ranges : List<REFERENCE_RANGE<DV_PROPORTION>> [*]
  + magnitude() : Real [1]
  + is_integral() : Boolean [1]
  + infix =( source : DV_PROPORTION [1] ) : DV_PROPORTION [1]
}

enum PROPORTION_KIND {
  pk_ratio = 0 
  pk_unitary = 1 
  pk_percent = 2 
  pk_fraction = 3 
  pk_integer_fraction = 4 
}

abstract class DV_AMOUNT {
  + accuracy_is_percent : Boolean [0..1]
  + accuracy : Real [0..1]
  + valid_percentage( number : Ordered_Numeric [1] ) : Boolean [1]
  + infix =( source : DV_AMOUNT [1] ) : DV_AMOUNT [1]
  + infix +( other : DV_AMOUNT [1] ) : DV_AMOUNT [1]
  + infix -( other : DV_AMOUNT [1] ) : DV_AMOUNT [1]
  + prefix -() : DV_AMOUNT [1]
}

class DV_QUANTITY {
  + magnitude : Real [1]
  + precision : Integer [0..1]
  + units : String [1]
  + normal_range : DV_INTERVAL<DV_QUANTITY> [0..1]
  + other_reference_ranges : List<REFERENCE_RANGE<DV_QUANTITY>> [*]
  + is_integral() : Boolean [1]
}

class DV_COUNT {
  + magnitude : Integer64 [1]
  + normal_range : DV_INTERVAL<DV_COUNT> [0..1]
  + other_reference_ranges : List<REFERENCE_RANGE<DV_COUNT>> [*]
}

abstract class DV_ABSOLUTE_QUANTITY {
  + accuracy : DV_AMOUNT [0..1]
  + {abstract} diff( other : DV_ABSOLUTE_QUANTITY [1] ) : DV_AMOUNT [1]
  + {abstract} add( a_diff : DV_AMOUNT [1] ) : DV_ABSOLUTE_QUANTITY [1]
  + {abstract} subtract( a_diif : DV_AMOUNT [1] ) : DV_ABSOLUTE_QUANTITY [1]
}

class DV_ORDINAL {
  + symbol : DV_CODED_TEXT [1]
  + value : Integer [1]
  + limits() : DV_ORDINAL [1]
  + is_strictly_comparable_to( other : DV_ORDERED [1] ) : Boolean [1]
  + <( other : Ordered [1] ) : Boolean [1]
}

class DV_SCALE {
  + symbol : DV_CODED_TEXT [1]
  + value : Real [1]
  + is_strictly_comparable_to( other : DV_SCALE [1] ) : Boolean [1]
  + less_than( other : DV_SCALE [1] ) : Boolean [1]
}

DATA_VALUE <|-- DV_ORDERED
Ordered <|-- DV_ORDERED
DATA_VALUE <|-- DV_INTERVAL
Interval <|-- DV_INTERVAL
DV_ORDERED <|-- DV_QUANTIFIED
PROPORTION_KIND <|-- DV_PROPORTION
DV_AMOUNT <|-- DV_PROPORTION
DV_QUANTIFIED <|-- DV_AMOUNT
DV_AMOUNT <|-- DV_QUANTITY
DV_AMOUNT <|-- DV_COUNT
DV_QUANTIFIED <|-- DV_ABSOLUTE_QUANTITY
DV_ORDERED <|-- DV_ORDINAL
DV_ORDERED <|-- DV_SCALE

@enduml